# xmcd
#
# Track frame offsets:
#	150
#	2058
#	19831
#	33224
#	50493
#	64372
#	79405
#	94264
#	113455
#	127957
#	143381
#	156728
#	166884
#
# Disc length: 2421 seconds
#
# Revision: 0
# Processed by: cddbd v1.5.1PL0 Copyright (c) Steve Scherf et al.
# Submitted via: dBpowerAMP V4.0
#
DISCID=a309730d
DTITLE=Hail gewoon - joa,inderdaad nee
DYEAR=1900
DGENRE=Country
TTITLE0=Heel gewoon
TTITLE1=hail gewoon
TTITLE2=Wel ken mie helpen
TTITLE3=mien kammeroad
TTITLE4=Alles wat ik wil
TTITLE5=Geef mie dien blues
TTITLE6=Bertha
TTITLE7=Zundagrieder
TTITLE8=Jungletocht
TTITLE9=Kold
TTITLE10=Laank prachteg hoar
TTITLE11=Keuneg,kaaizer,admiroal
TTITLE12=data
EXTD=
EXTT0=
EXTT1=
EXTT2=
EXTT3=
EXTT4=
EXTT5=
EXTT6=
EXTT7=
EXTT8=
EXTT9=
EXTT10=
EXTT11=
EXTT12=
PLAYORDER=
